# xmcd
#
# Track frame offsets:
#	150
#	18517
#	35058
#	51467
#	68326
#	87988
#	102753
#	120507
#	137622
#	153641
#	174209
#	191474
#	210217
#	227513
#	244166
#	261462
#
# Disc length: 3819 seconds
#
# Revision: 0
# Processed by: cddbd v1.5.1PL0 Copyright (c) Steve Scherf et al.
# Submitted via: audiograbber 1.83.01
#
DISCID=d00ee910
DTITLE=Νικόλας Χατζόπουλος - Ένα όμορφο μωρό
DYEAR=2005
DGENRE=Λαικά
TTITLE0=Έλα μου
TTITLE1=Ένα βράδυ στο αιγαίο
TTITLE2=Σαν τσιγάρο να καώ
TTITLE3=Γλυκό μου πάθος
TTITLE4=Εγώ να δείς
TTITLE5=Τα μυστικά του φεγγαριού
TTITLE6=Φύλακας άγγελος
TTITLE7=Θέλω να σε δώ
TTITLE8=Τα γαλάζια σου τα μάτια
TTITLE9=Αν μ'αγαπάς φίλα σταυρό
TTITLE10=Έχω ευαίσθητη καρδιά
TTITLE11=Το ραντεβού
TTITLE12=Δεν υπάρχει κανείς
TTITLE13=Σταμάτησε το χρόνο
TTITLE14=Η αγάπη είναι αίνιγμα
TTITLE15=Μερακλήδικο (οργανικό)
EXTD=
EXTT0=
EXTT1=
EXTT2=
EXTT3=
EXTT4=
EXTT5=
EXTT6=
EXTT7=
EXTT8=
EXTT9=
EXTT10=
EXTT11=
EXTT12=
EXTT13=
EXTT14=
EXTT15=
PLAYORDER=
